<?xml version="1.0" standalone="no"?>
<!DOCTYPE svg PUBLIC "-//W3C//DTD SVG 20010904//EN"
 "http://www.w3.org/TR/2001/REC-SVG-20010904/DTD/svg10.dtd">
<svg version="1.0" xmlns="http://www.w3.org/2000/svg"
 width="400.000000pt" height="400.000000pt" viewBox="0 0 400.000000 400.000000"
 preserveAspectRatio="xMidYMid meet">

<g transform="translate(0.000000,400.000000) scale(0.100000,-0.100000)"
fill="#000000" stroke="none">
<path d="M0 2000 l0 -2000 2000 0 2000 0 0 590 0 590 -1781 2 -1781 3 -29 33
-29 32 0 738 c1 704 1 738 19 759 11 13 31 27 46 33 17 7 623 10 1791 10
l1764 0 0 605 0 605 -2000 0 -2000 0 0 -2000z"/>
<path d="M960 2599 c-48 -30 -52 -36 -47 -100 l5 -56 -65 -6 c-53 -4 -70 -10
-95 -33 -28 -28 -29 -32 -23 -86 l6 -58 -56 0 c-72 0 -110 -20 -125 -64 -9
-27 -8 -41 3 -68 20 -48 56 -68 121 -68 56 0 77 -13 57 -33 -16 -16 -13 -68 4
-91 19 -25 19 -60 0 -76 -22 -18 -18 -73 6 -104 l21 -26 -21 -36 c-26 -44 -26
-74 0 -118 l21 -36 -21 -26 c-28 -35 -27 -82 3 -119 24 -30 25 -30 125 -30
100 0 101 0 126 30 30 37 32 78 4 117 l-22 30 22 38 c26 47 26 63 0 110 l-22
38 22 28 c27 34 27 74 0 108 l-21 26 21 41 c23 44 27 79 10 96 -20 20 1 33 53
33 66 0 116 30 126 74 7 34 6 38 -9 78 -13 32 -53 48 -119 48 l-47 0 1 75 1
75 209 0 c237 0 279 7 307 54 23 37 24 58 4 95 -28 55 -59 61 -317 61 -220 0
-235 -1 -268 -21z"/>
<path d="M2270 2604 c-41 -18 -36 -13 -54 -55 -12 -30 -12 -39 1 -71 24 -59
59 -68 283 -68 l190 0 0 -57 c0 -39 5 -62 17 -75 16 -18 16 -21 -2 -54 -22
-40 -22 -100 0 -124 19 -21 19 -29 -1 -51 -20 -23 -21 -95 0 -118 20 -22 20
-45 1 -61 -21 -18 -20 -98 2 -122 15 -16 15 -22 4 -40 -59 -95 -6 -178 114
-178 l48 0 -8 -32 c-11 -49 -8 -65 15 -98 24 -34 78 -46 173 -37 50 4 64 10
83 34 33 40 31 85 -5 125 -26 30 -36 33 -98 38 -54 4 -67 8 -64 20 14 53 12
83 -8 111 -26 34 -26 45 -3 58 25 14 24 105 -2 124 -19 14 -19 15 4 51 17 29
21 46 17 78 -3 23 -13 45 -21 50 -21 12 -20 25 4 55 24 30 25 68 5 103 -28 49
-28 53 -9 67 27 20 27 106 0 126 -19 14 -19 15 2 49 40 64 22 126 -44 154 -50
21 -595 19 -644 -2z"/>
<path d="M3391 2603 c-45 -23 -66 -72 -50 -120 6 -19 9 -36 6 -39 -2 -2 -35
-6 -73 -8 -59 -4 -72 -8 -91 -31 -28 -32 -30 -85 -6 -126 16 -27 16 -31 0 -58
-19 -32 -23 -96 -7 -106 26 -16 30 -43 10 -68 -24 -30 -27 -99 -5 -117 8 -7
15 -21 15 -32 0 -11 -7 -26 -15 -34 -24 -24 -19 -88 9 -121 21 -24 32 -28 95
-31 39 -2 71 -8 71 -12 0 -5 -5 -21 -10 -36 -14 -37 3 -87 38 -110 15 -10 54
-20 87 -23 46 -5 59 -10 56 -21 -15 -52 -11 -86 13 -115 l24 -30 187 0 187 0
25 29 c22 26 25 36 20 78 -5 38 -3 50 8 55 22 8 22 901 1 909 -11 4 -14 17
-10 52 8 62 -7 95 -49 115 -52 25 -486 25 -536 0z m301 -203 c2 -5 1 -38 -2
-72 l-5 -63 -64 -6 c-56 -5 -68 -10 -88 -35 -24 -30 -31 -88 -13 -99 6 -3 10
-13 10 -21 0 -10 -12 -14 -45 -14 -48 0 -51 4 -34 47 8 23 6 36 -12 75 -20 43
-21 49 -7 65 20 23 31 74 19 92 -22 34 -2 41 119 41 70 0 120 -4 122 -10z
m183 -182 c-17 -56 -16 -74 7 -108 l24 -35 -23 -34 c-29 -42 -29 -62 -1 -111
22 -38 22 -39 3 -60 -26 -28 -26 -91 -1 -119 19 -21 19 -22 -3 -62 -22 -39
-23 -51 -6 -106 l7 -23 -130 0 c-119 0 -160 8 -132 25 5 3 10 26 10 50 0 67
-44 98 -155 107 -24 2 -29 7 -26 23 2 11 3 43 2 71 l-1 52 65 4 c51 3 70 9 90
28 23 22 26 31 23 80 l-3 55 58 3 c50 3 62 7 92 38 26 26 35 43 35 69 0 18 -4
37 -10 40 -5 3 -10 13 -10 21 0 10 13 14 46 14 43 0 46 -1 39 -22z"/>
<path d="M1434 2251 c-29 -13 -54 -55 -54 -92 0 -23 9 -40 35 -65 l36 -33 147
-3 c141 -3 147 -4 143 -23 -6 -33 -4 -79 4 -102 7 -21 6 -21 -154 -25 l-161
-3 -25 -30 c-22 -26 -25 -37 -20 -82 l5 -53 -40 0 c-59 0 -118 -27 -136 -63
-14 -26 -14 -36 -3 -69 7 -21 18 -43 25 -49 10 -8 7 -18 -12 -46 -13 -20 -24
-43 -24 -53 0 -32 44 -83 78 -92 19 -5 184 -8 369 -6 l335 3 24 30 c30 37 31
84 3 119 l-21 26 21 36 c27 45 26 74 0 119 l-22 36 22 23 c25 26 28 87 6 106
-19 16 -19 51 0 76 8 10 15 35 15 55 0 30 -7 43 -35 68 -31 27 -43 31 -94 31
l-59 0 5 58 c5 52 3 59 -22 82 -26 24 -30 25 -198 27 -95 1 -181 -2 -193 -6z
m316 -555 c0 -8 -4 -18 -10 -21 -5 -3 -10 -21 -10 -40 0 -19 5 -37 10 -40 6
-3 10 -13 10 -21 0 -11 -23 -14 -128 -14 -71 0 -132 3 -135 7 -4 3 -2 12 4 19
14 17 14 83 0 97 -6 6 -11 15 -11 19 0 4 61 8 135 8 111 0 135 -3 135 -14z"/>
<path d="M2079 2245 c-36 -19 -54 -67 -43 -108 14 -47 65 -77 131 -77 l53 0
-5 -52 c-5 -43 -2 -59 14 -83 l20 -29 -21 -34 c-23 -38 -20 -96 8 -116 15 -11
14 -15 -5 -47 -27 -43 -27 -85 0 -128 20 -33 20 -36 4 -47 -10 -8 -19 -31 -22
-57 -4 -36 -1 -48 20 -73 25 -28 27 -29 122 -29 l97 0 30 34 c25 28 29 40 25
69 -4 19 -14 43 -23 53 -16 18 -16 22 4 63 12 24 22 47 22 51 0 4 -10 27 -22
51 -21 43 -21 44 -2 65 25 27 25 91 0 118 -19 21 -19 22 3 65 23 48 21 86 -7
118 -14 17 -14 21 13 68 22 38 18 66 -14 102 l-29 33 -174 2 c-136 2 -179 0
-199 -12z"/>
</g>
</svg>
