<?xml version="1.0" standalone="no"?>
<!DOCTYPE svg PUBLIC "-//W3C//DTD SVG 20010904//EN"
 "http://www.w3.org/TR/2001/REC-SVG-20010904/DTD/svg10.dtd">
<svg version="1.0" xmlns="http://www.w3.org/2000/svg"
 width="200.000000pt" height="200.000000pt" viewBox="0 0 200.000000 200.000000"
 preserveAspectRatio="xMidYMid meet">

<g transform="translate(0.000000,200.000000) scale(0.100000,-0.100000)"
fill="#000000" stroke="none">
<path d="M586 1881 c-4 -6 -13 -131 -21 -278 -17 -307 -17 -318 -9 -311 6 7
45 590 39 596 -1 2 -6 -1 -9 -7z"/>
<path d="M736 1772 c-7 -12 -38 -453 -32 -459 3 -3 11 -3 18 0 10 3 19 64 32
225 10 121 15 225 11 231 -7 13 -22 14 -29 3z"/>
<path d="M674 972 c-11 -131 -10 -286 1 -292 11 -5 19 61 33 248 7 102 6 115
-9 123 -15 8 -18 -1 -25 -79z"/>
<path d="M529 973 c0 -21 -4 -84 -8 -141 -6 -84 -11 -105 -27 -116 -18 -14
-18 -15 0 -35 23 -26 32 -26 32 -3 0 9 4 88 9 175 4 86 5 157 1 157 -3 0 -6
-17 -7 -37z"/>
<path d="M1182 392 l-141 -149 54 9 c84 13 111 27 40 21 l-60 -5 90 93 c50 51
92 96 95 99 3 3 21 22 39 43 19 20 32 37 29 37 -3 0 -69 -67 -146 -148z"/>
<path d="M930 471 c0 -10 -3 -34 -6 -52 -5 -23 -3 -31 4 -24 15 15 26 95 13
95 -6 0 -11 -8 -11 -19z"/>
<path d="M1210 290 c-8 -5 -10 -10 -5 -10 6 0 17 5 25 10 8 5 11 10 5 10 -5 0
-17 -5 -25 -10z"/>
</g>
</svg>
