<?xml version="1.0" standalone="no"?>
<!DOCTYPE svg PUBLIC "-//W3C//DTD SVG 20010904//EN"
 "http://www.w3.org/TR/2001/REC-SVG-20010904/DTD/svg10.dtd">
<svg version="1.0" xmlns="http://www.w3.org/2000/svg"
 width="903.000000pt" height="526.000000pt" viewBox="0 0 903.000000 526.000000"
 preserveAspectRatio="xMidYMid meet">

<g transform="translate(0.000000,526.000000) scale(0.100000,-0.100000)"
fill="#000000" stroke="none">
<path d="M5580 5214 c-6 -14 -10 -104 -10 -200 l0 -174 -375 0 -375 0 0 -34
c0 -49 -9 -66 -35 -66 -30 0 -55 -25 -55 -55 0 -17 -10 -28 -37 -42 -36 -17
-38 -21 -40 -68 -2 -27 -5 -69 -8 -92 -6 -40 -8 -42 -43 -45 l-37 -3 0 -335 0
-335 40 -5 40 -5 5 -81 c6 -91 19 -114 61 -114 26 0 28 -3 31 -47 l3 -48 65
-3 c74 -4 86 -10 94 -57 l7 -35 329 0 330 0 0 29 c0 41 21 58 82 66 85 12 96
19 100 62 3 34 6 38 33 41 16 2 33 9 37 15 4 7 8 65 8 129 0 64 3 123 6 132 4
10 18 16 40 16 l34 0 0 639 0 640 -37 3 c-32 3 -38 7 -41 28 -8 74 -1 70 -127
70 -115 0 -116 0 -125 -26z m-170 -702 c0 -54 13 -62 97 -62 l73 0 -2 -291 -3
-291 -35 -12 c-28 -9 -36 -18 -43 -49 -6 -26 -15 -39 -31 -42 -11 -2 -123 -6
-248 -7 l-227 -3 -11 44 c-8 34 -17 45 -40 54 -39 15 -39 15 -43 335 l-3 262
67 0 c93 0 99 4 99 56 l0 44 175 0 175 0 0 -38z"/>
<path d="M6300 4843 c-31 -6 -40 -19 -40 -60 0 -31 -2 -33 -33 -33 -43 0 -57
-15 -57 -61 0 -39 -11 -49 -56 -49 -23 0 -24 -3 -25 -67 -1 -99 -8 -117 -47
-121 l-32 -3 0 -345 0 -344 34 0 c34 0 35 0 40 -52 3 -29 7 -71 9 -93 2 -34 6
-40 27 -43 31 -4 50 -28 50 -63 0 -31 16 -36 115 -41 l50 -3 9 -47 9 -48 448
0 c341 0 450 3 455 12 4 7 10 28 14 47 5 31 10 36 43 44 30 7 37 14 37 33 0
13 -9 32 -20 42 -11 9 -29 25 -40 35 -17 14 -20 30 -20 97 l0 80 -424 0 -425
0 -3 48 c-3 44 -5 47 -33 50 -36 5 -45 16 -45 64 l0 36 363 4 c264 2 368 7
384 16 15 8 23 23 25 50 3 34 6 37 38 42 32 5 35 8 38 43 2 21 9 40 15 42 7 2
24 6 39 9 22 5 27 12 30 43 3 36 8 41 61 62 26 10 27 14 27 80 0 79 -13 101
-61 101 l-29 0 0 155 0 155 -58 -6 c-68 -7 -102 6 -102 39 -1 53 11 52 -402
53 -211 1 -394 0 -408 -3z m635 -310 c12 -70 14 -73 50 -73 36 0 45 -12 45
-65 l0 -33 -77 -8 c-43 -3 -157 -4 -255 -2 l-178 5 0 -41 c0 -48 -13 -66 -50
-66 -36 0 -50 17 -50 62 0 35 -2 38 -35 44 -26 4 -37 13 -41 29 -10 40 4 63
39 67 30 3 32 6 35 43 2 22 8 45 13 50 6 6 110 12 247 16 130 3 240 6 244 7 4
1 10 -15 13 -35z"/>
<path d="M3508 4823 l-128 -4 0 -44 c0 -41 -3 -45 -27 -51 -49 -10 -53 -13
-53 -38 0 -37 -10 -56 -30 -56 -45 0 -50 -9 -50 -90 0 -84 -12 -110 -51 -110
-18 0 -19 -11 -19 -340 0 -321 1 -340 18 -340 42 0 56 -24 61 -106 l6 -79 38
-9 c28 -7 37 -15 37 -30 1 -59 8 -66 75 -66 72 0 95 -14 95 -61 l0 -29 329 0
328 0 7 39 c7 46 17 51 97 51 62 0 61 -1 71 64 2 11 17 23 38 30 l35 11 3 148
3 147 27 0 c53 0 53 -5 50 296 l-3 279 -30 3 c-16 2 -34 7 -39 12 -5 5 -8 39
-8 77 2 85 -15 115 -61 111 -31 -3 -32 -1 -29 29 4 44 -14 75 -41 71 -31 -4
-47 9 -47 37 0 57 12 55 -294 53 -154 -1 -338 -4 -408 -5z m462 -311 c0 -54
13 -62 96 -62 l71 0 7 -52 c3 -29 6 -167 6 -305 l0 -253 -33 0 c-42 0 -57 -15
-57 -57 l0 -33 -255 0 -255 0 0 45 c0 43 -1 45 -30 45 -18 0 -33 7 -38 18 -5
9 -13 144 -17 300 l-7 282 67 0 c87 0 105 10 105 60 l0 39 53 4 c28 2 105 4
170 5 l117 2 0 -38z"/>
<path d="M2148 4811 c-48 -4 -89 -9 -92 -11 -2 -3 0 -192 5 -420 5 -228 6
-443 3 -478 -6 -59 -8 -62 -38 -70 -26 -7 -32 -14 -37 -46 -8 -49 -21 -57 -94
-54 l-60 3 -10 43 c-8 37 -14 44 -38 49 -18 4 -32 15 -39 32 -10 22 -24 470
-27 849 l-1 92 -120 0 -120 0 0 -45 c0 -32 -4 -45 -14 -45 -8 0 -22 -7 -30
-16 -14 -14 -16 -68 -15 -457 1 -243 4 -455 8 -472 5 -25 11 -30 36 -30 30 0
30 -1 38 -70 13 -106 14 -109 45 -121 23 -9 31 -20 36 -48 8 -41 16 -44 111
-48 l60 -3 3 -35 c2 -19 9 -38 15 -42 15 -9 739 -10 865 -2 l91 7 3 41 c3 35
7 41 28 44 37 6 50 21 50 58 0 30 3 34 35 40 28 5 36 12 41 33 9 42 19 55 53
63 l32 9 -6 502 c-3 276 -8 535 -11 575 l-6 72 -114 0 -114 0 0 -485 0 -485
-24 0 c-29 0 -46 -20 -55 -63 l-7 -32 -116 -3 -117 -3 -5 43 c-3 24 -8 228
-11 453 -3 226 -8 424 -11 442 -5 28 -10 32 -43 35 -32 3 -36 6 -39 33 -5 62
-12 75 -35 73 -12 0 -61 -4 -109 -7z"/>
<path d="M8370 3060 c-6 -12 -10 -33 -8 -48 3 -24 7 -27 38 -27 32 0 35 3 38
33 6 56 -44 86 -68 42z"/>
<path d="M8782 3033 l3 -48 79 -3 79 -3 -7 -207 c-4 -114 -12 -222 -17 -239
-10 -32 -12 -33 -65 -33 -67 0 -94 -13 -94 -45 0 -54 3 -55 131 -55 l119 0 1
33 c1 17 4 170 8 340 l6 307 -123 0 -123 0 3 -47z"/>
<path d="M3845 3063 c-61 -16 -36 -83 31 -83 l34 0 0 -249 0 -250 -37 -3 c-34
-3 -38 -6 -41 -33 -5 -43 18 -55 113 -55 86 0 112 10 115 45 4 38 0 44 -32 47
l-33 3 0 245 0 245 33 3 c32 3 33 5 30 40 -2 29 -8 38 -28 43 -29 8 -155 9
-185 2z"/>
<path d="M4337 3056 c-9 -10 -17 -26 -17 -35 0 -37 22 -42 171 -39 l143 3 8
34 c5 18 7 35 5 37 -2 2 -69 7 -148 10 -129 6 -147 5 -162 -10z"/>
<path d="M4836 3054 c-17 -16 -20 -33 -10 -58 5 -13 26 -16 131 -16 l125 0 -7
33 c-10 49 -28 57 -131 57 -71 0 -96 -4 -108 -16z"/>
<path d="M6010 3024 c0 -43 1 -45 26 -42 37 4 51 29 36 62 -8 18 -19 26 -37
26 -23 0 -25 -4 -25 -46z"/>
<path d="M6426 3048 c-3 -13 -7 -32 -8 -43 -2 -13 -12 -21 -28 -23 -35 -5 -50
-20 -50 -51 0 -35 17 -51 52 -51 l28 0 0 -177 c0 -98 -4 -182 -8 -188 -4 -5
-20 -17 -37 -25 -35 -18 -55 -64 -36 -83 7 -7 52 -13 121 -15 l110 -4 0 47 c0
42 -3 47 -29 56 -38 13 -41 40 -41 340 l0 239 -35 0 c-28 0 -36 -4 -39 -22z"/>
<path d="M7435 3058 c-2 -7 -5 -26 -7 -43 -2 -23 -8 -31 -28 -33 -35 -5 -50
-20 -50 -51 0 -35 17 -51 52 -51 l28 0 0 -190 0 -190 -25 0 c-14 0 -34 -9 -45
-20 -21 -21 -27 -65 -10 -75 19 -12 109 -17 174 -10 l66 7 0 44 c0 43 0 44
-40 50 l-41 7 2 281 1 281 -36 3 c-23 2 -38 -1 -41 -10z"/>
<path d="M8026 3054 c-3 -9 -6 -29 -6 -45 0 -25 -4 -29 -27 -29 -32 0 -47 -9
-55 -30 -10 -28 10 -59 44 -68 l33 -8 3 -93 3 -92 -83 3 -83 3 0 40 c0 37 3
41 34 51 64 21 68 84 6 84 -31 0 -35 -3 -45 -39 -8 -31 -16 -40 -42 -47 l-33
-10 -3 -92 -3 -92 121 0 120 0 1 -72 c1 -94 9 -122 36 -126 34 -5 53 33 53
108 0 77 5 87 45 92 50 5 48 75 -3 94 -26 10 -29 16 -35 74 -4 35 -7 119 -7
186 l0 124 -34 0 c-22 0 -36 -6 -40 -16z"/>
<path d="M16 2918 c12 -322 22 -499 28 -506 4 -4 57 -8 117 -10 l109 -4 0 27
c0 44 -17 65 -53 65 -18 0 -48 3 -69 6 l-36 6 -7 147 c-3 80 -8 166 -10 191
-2 25 -1 61 3 80 8 34 10 35 67 44 64 9 75 17 75 54 0 32 -34 42 -140 42 l-89
0 5 -142z"/>
<path d="M450 3052 c-38 -4 -50 -15 -50 -49 0 -33 62 -47 180 -38 125 8 130
10 130 45 0 23 -5 31 -22 35 -30 6 -193 11 -238 7z"/>
<path d="M1373 3053 c-33 -13 3 -93 41 -93 21 0 24 -18 31 -175 3 -77 8 -172
11 -211 l6 -71 -28 -7 c-42 -11 -54 -25 -54 -62 l0 -34 121 0 121 0 -7 33
c-10 42 -21 55 -53 59 -26 3 -27 5 -33 93 -4 50 -7 177 -8 283 l-1 192 -67 -1
c-38 0 -74 -3 -80 -6z"/>
<path d="M2827 3053 c-4 -3 -7 -40 -7 -82 0 -86 -4 -95 -43 -110 -22 -9 -27
-17 -27 -46 0 -30 4 -35 28 -41 15 -3 33 -7 40 -10 8 -2 12 -26 12 -71 0 -37
3 -98 7 -135 5 -61 8 -68 27 -68 41 0 46 17 46 151 0 134 2 139 50 139 20 0
33 36 21 58 -5 9 -24 20 -42 26 l-34 11 -3 80 c-2 43 -8 85 -14 92 -11 14 -50
18 -61 6z"/>
<path d="M5922 2968 c-6 -7 -12 -26 -14 -42 -2 -20 -12 -35 -33 -46 -25 -14
-31 -25 -38 -71 -12 -82 -5 -208 13 -219 47 -30 60 6 60 165 l0 124 43 3 c39
3 42 5 45 35 5 45 -50 82 -76 51z"/>
<path d="M7106 2972 c-3 -5 -8 -24 -11 -43 -7 -41 -12 -46 -45 -51 -22 -3 -25
-9 -28 -45 -3 -43 -3 -43 31 -43 32 0 35 3 43 43 7 34 14 43 34 45 14 2 29 8
34 12 13 13 9 72 -6 81 -17 11 -45 11 -52 1z"/>
<path d="M8452 2968 c-15 -15 -16 -60 0 -76 7 -7 25 -12 40 -12 l28 0 0 -140
c0 -127 2 -140 18 -140 9 0 27 -3 40 -6 22 -6 22 -6 22 124 0 72 -3 137 -6
146 -3 9 -16 16 -29 16 -29 0 -43 17 -47 60 -2 29 -7 36 -28 38 -14 2 -31 -3
-38 -10z"/>
<path d="M4242 2883 l3 -88 30 0 c27 0 30 3 37 46 5 26 5 64 0 85 -7 35 -11
39 -40 42 l-33 3 3 -88z"/>
<path d="M4744 2913 c-7 -58 3 -383 13 -409 7 -19 39 -18 47 2 8 20 8 412 0
442 -4 15 -14 22 -29 22 -21 0 -24 -6 -31 -57z"/>
<path d="M5087 2964 c-9 -9 -8 -376 1 -429 6 -30 12 -40 27 -40 12 0 22 9 26
25 9 31 9 374 0 415 -6 29 -37 46 -54 29z"/>
<path d="M347 2953 c-10 -18 -17 -121 -9 -148 6 -23 16 -31 38 -35 21 -4 32
-13 39 -35 6 -17 14 -36 18 -42 9 -14 62 -16 156 -7 58 7 61 8 61 34 0 35 -10
39 -127 50 -51 4 -97 11 -103 15 -5 3 -10 27 -10 53 0 70 -17 122 -40 122 -10
0 -21 -3 -23 -7z"/>
<path d="M880 2844 c0 -58 12 -64 120 -64 108 0 120 6 120 64 l0 26 -120 0
-120 0 0 -26z"/>
<path d="M1913 2862 c-62 -4 -81 -21 -65 -57 11 -24 15 -25 110 -25 116 0 143
12 125 53 -10 21 -19 26 -65 29 -29 1 -76 2 -105 0z"/>
<path d="M2346 2858 c-3 -7 -7 -30 -11 -50 -5 -33 -9 -37 -38 -40 l-32 -3 -3
-105 c-4 -139 2 -170 32 -170 32 0 38 18 43 135 6 154 -4 141 115 149 57 4
106 10 110 14 4 4 9 23 10 42 l3 35 -113 3 c-85 2 -113 -1 -116 -10z"/>
<path d="M6935 2774 c-10 -10 -15 -29 -13 -48 3 -29 6 -31 46 -34 41 -3 42 -2
42 27 0 29 -29 71 -49 71 -5 0 -17 -7 -26 -16z"/>
<path d="M820 2754 c-11 -29 -12 -150 -2 -209 6 -36 11 -40 39 -43 30 -3 32
-2 38 42 l7 46 143 0 c163 0 155 -5 155 97 0 64 -7 83 -31 83 -22 0 -39 -28
-39 -64 l0 -26 -109 0 c-116 0 -141 9 -141 50 0 20 -25 50 -41 50 -5 0 -14
-12 -19 -26z"/>
<path d="M4380 2773 c-42 -5 -59 -24 -53 -58 4 -20 13 -25 50 -31 48 -7 154
-1 172 11 6 3 11 21 11 39 0 33 -1 33 -52 40 -54 6 -66 6 -128 -1z"/>
<path d="M1774 2755 c-7 -18 1 -168 12 -222 5 -28 11 -33 34 -33 30 0 40 15
40 61 l0 29 153 -2 152 -3 3 76 c2 61 -1 80 -14 93 -28 29 -48 16 -54 -34 l-5
-45 -127 -3 -127 -3 -3 48 c-3 44 -5 48 -31 51 -18 2 -29 -2 -33 -13z"/>
<path d="M6858 2679 c-21 -12 -24 -59 -6 -77 20 -20 55 -14 62 11 10 38 7 65
-10 71 -21 8 -26 7 -46 -5z"/>
<path d="M4592 2664 c-19 -13 -22 -24 -22 -82 0 -80 8 -95 46 -90 27 3 29 7
37 62 16 111 -6 149 -61 110z"/>
<path d="M659 2638 c-2 -80 -8 -121 -18 -131 -7 -7 -59 -10 -151 -8 l-140 2 0
-50 0 -51 153 0 152 0 2 42 c3 44 14 58 51 58 21 0 22 4 22 85 l0 85 -35 0
c-33 0 -35 -2 -36 -32z"/>
<path d="M5922 2578 c-17 -17 -15 -63 2 -77 8 -7 27 -11 43 -9 24 3 28 8 31
41 3 32 0 38 -23 47 -34 13 -38 13 -53 -2z"/>
<path d="M6764 2566 c-8 -33 -2 -57 17 -69 39 -24 65 25 39 74 -15 27 -48 24
-56 -5z"/>
<path d="M8431 2568 c-15 -40 1 -73 37 -76 26 -3 34 1 43 22 10 20 9 30 -5 51
-21 32 -63 34 -75 3z"/>
<path d="M2597 2573 c-4 -3 -7 -21 -7 -39 0 -45 29 -61 59 -33 11 11 21 26 21
34 0 30 -53 58 -73 38z"/>
<path d="M3093 2572 c-21 -13 -20 -54 3 -76 24 -25 54 -4 54 38 0 39 -27 57
-57 38z"/>
<path d="M8363 2494 c-19 -8 -16 -79 3 -95 27 -22 49 1 49 52 0 37 -3 44 -20
46 -11 1 -26 -1 -32 -3z"/>
<path d="M901 2468 c-9 -25 -4 -49 13 -60 6 -4 60 -8 119 -8 l109 0 -7 33
c-10 49 -28 57 -132 57 -88 0 -94 -1 -102 -22z"/>
<path d="M1867 2483 c-14 -13 -7 -71 9 -77 9 -3 58 -6 109 -6 85 0 95 2 105
20 20 38 4 57 -53 64 -69 8 -162 8 -170 -1z"/>
<path d="M2363 2480 c-29 -12 -31 -55 -4 -70 28 -14 204 -13 219 2 22 22 13
46 -20 56 -48 15 -170 22 -195 12z"/>
<path d="M2970 2481 c-40 -5 -45 -9 -48 -34 -5 -45 13 -57 84 -57 l64 0 0 44
c0 43 -12 58 -43 54 -7 0 -32 -4 -57 -7z"/>
<path d="M4288 2483 c-38 -4 -38 -5 -38 -49 l0 -44 118 0 c125 0 190 10 203
32 14 21 6 41 -21 48 -35 10 -216 18 -262 13z"/>
<path d="M4853 2483 c-25 -5 -35 -26 -27 -58 7 -30 28 -35 147 -35 l97 0 0 50
0 50 -97 -1 c-54 -1 -108 -4 -120 -6z"/>
<path d="M6010 2475 c-9 -11 -10 -25 -4 -48 13 -42 46 -48 70 -13 15 24 15 28
0 51 -19 28 -47 32 -66 10z"/>
<path d="M2270 2152 c0 -82 3 -231 7 -330 l6 -182 33 0 c21 0 34 6 38 17 4 9
4 72 0 139 l-7 123 79 3 79 3 3 30 c5 41 -19 55 -96 55 l-64 0 4 90 c2 49 7
92 9 95 3 3 73 8 155 13 l149 7 0 35 0 35 -95 6 c-52 4 -141 7 -197 8 l-103 1
0 -148z"/>
<path d="M2858 2294 c-9 -3 -19 -17 -23 -32 -8 -33 25 -65 59 -56 22 5 23 3
29 -117 4 -67 7 -175 7 -241 l0 -118 -27 0 c-44 0 -55 -13 -51 -56 3 -38 4
-39 47 -45 25 -3 47 -11 49 -17 2 -8 8 -7 19 3 8 8 32 15 53 15 58 0 70 8 70
45 0 36 -13 51 -50 57 l-25 3 -8 195 c-4 107 -11 233 -15 280 l-7 85 -55 2
c-30 0 -62 -1 -72 -3z"/>
<path d="M3837 2293 c-4 -3 -7 -37 -7 -74 0 -88 -12 -119 -45 -119 -23 0 -25
-4 -25 -45 0 -40 3 -45 26 -51 36 -9 44 -39 44 -159 0 -81 3 -107 16 -119 19
-20 29 -20 48 0 13 12 16 41 16 145 l0 129 34 0 c38 0 45 11 38 58 -3 26 -11
36 -33 44 -29 10 -32 17 -44 113 -4 28 -11 58 -16 68 -10 17 -40 23 -52 10z"/>
<path d="M5086 2285 c-3 -9 -6 -96 -7 -193 -1 -218 -7 -265 -34 -270 -30 -5
-45 -31 -45 -75 0 -37 1 -38 31 -35 33 3 40 -4 56 -57 7 -24 15 -31 40 -33
l31 -3 -5 303 c-6 341 -9 372 -40 376 -12 2 -23 -4 -27 -13z"/>
<path d="M4743 1975 c4 -189 11 -324 17 -335 12 -23 42 -26 58 -7 6 6 12 25
14 41 2 23 10 32 38 41 29 10 36 17 38 44 4 39 -10 59 -46 63 -26 3 -27 5 -33
93 -4 50 -7 149 -8 221 -1 141 -6 154 -55 154 l-29 0 6 -315z"/>
<path d="M6089 2188 c0 -142 -8 -181 -36 -183 -31 -2 -65 -35 -61 -58 3 -22
19 -33 62 -42 l29 -6 -6 -76 c-3 -42 -11 -81 -17 -87 -6 -6 -57 -12 -114 -14
-114 -5 -116 -6 -116 -74 l0 -28 165 0 165 0 -2 333 -3 332 -32 3 -33 3 -1
-103z"/>
<path d="M3334 2074 c-13 -51 2 -59 119 -62 86 -2 108 0 121 13 20 20 20 26 2
51 -12 16 -29 19 -125 22 l-110 4 -7 -28z"/>
<path d="M5351 2091 c-8 -5 -17 -26 -20 -47 -6 -36 -9 -39 -49 -47 l-42 -8 1
-77 c1 -42 4 -102 7 -132 6 -51 9 -55 34 -58 39 -5 48 25 48 163 l0 113 116 4
c97 2 118 6 129 21 21 28 7 56 -34 67 -44 12 -171 13 -190 1z"/>
<path d="M5834 2076 c-3 -13 -4 -35 -2 -47 2 -20 10 -24 43 -27 22 -2 58 1 80
6 37 7 40 10 40 42 0 40 -16 47 -102 49 -48 1 -53 -1 -59 -23z"/>
<path d="M6337 2093 c-12 -11 -8 -60 6 -71 7 -6 63 -14 125 -18 l112 -7 0 46
c0 32 -5 47 -16 51 -21 8 -219 8 -227 -1z"/>
<path d="M3597 2003 c-4 -3 -7 -19 -7 -33 0 -15 -6 -32 -12 -37 -7 -6 -60 -13
-117 -17 -110 -7 -134 -16 -129 -50 5 -34 45 -46 156 -46 l102 0 0 -45 0 -45
-92 -1 c-129 -2 -152 -8 -156 -40 -6 -52 15 -59 174 -59 l144 0 0 178 c0 125
-4 182 -12 190 -13 13 -41 16 -51 5z"/>
<path d="M4931 1993 c-20 -16 -22 -26 -19 -93 3 -74 3 -75 32 -78 38 -5 46 10
46 90 0 100 -13 118 -59 81z"/>
<path d="M5771 2001 c-9 -6 -16 -45 -22 -122 -10 -140 -6 -159 31 -159 35 0
38 8 46 132 8 134 -8 179 -55 149z"/>
<path d="M6602 2001 c-8 -4 -16 -27 -19 -50 l-6 -41 -118 0 -118 0 -3 43 c-3
42 -3 42 -45 45 l-43 3 0 -115 c0 -139 9 -169 48 -164 24 3 27 7 30 46 l3 42
165 0 164 0 0 81 c0 104 -17 137 -58 110z"/>
<path d="M5575 1883 c8 -160 9 -163 45 -163 36 0 37 3 45 158 l7 122 -52 0
-51 0 6 -117z"/>
<path d="M3254 1796 c-11 -47 -2 -61 44 -64 39 -3 42 -2 42 23 0 43 -17 65
-50 65 -23 0 -31 -5 -36 -24z"/>
<path d="M4090 1796 c-5 -13 -6 -33 -3 -45 11 -43 73 -34 73 11 0 54 -52 80
-70 34z"/>
<path d="M3917 1713 c-4 -3 -7 -17 -7 -29 0 -37 39 -56 107 -52 55 3 58 4 61
31 5 46 -12 57 -88 57 -36 0 -70 -3 -73 -7z"/>
<path d="M5360 1711 c-31 -8 -39 -51 -15 -75 14 -14 35 -16 124 -14 l106 3 0
40 c0 33 -4 40 -25 46 -32 9 -158 9 -190 0z"/>
<path d="M6346 1707 c-12 -9 -17 -23 -14 -42 4 -37 23 -43 146 -44 l92 -1 0
50 0 50 -103 0 c-69 0 -109 -4 -121 -13z"/>
<path d="M2610 1505 c0 -57 5 -59 169 -63 l151 -4 0 45 0 46 -160 3 -160 3 0
-30z"/>
<path d="M3597 1523 c-4 -3 -7 -35 -7 -69 0 -87 -12 -114 -50 -114 -26 0 -30
-4 -30 -26 0 -36 17 -64 40 -64 30 0 35 -17 40 -139 5 -110 6 -115 32 -134 22
-17 30 -18 43 -7 12 10 15 36 15 127 0 121 8 153 40 153 23 0 43 34 35 60 -3
10 -21 24 -40 30 -40 13 -45 24 -45 100 0 32 -3 65 -6 74 -6 16 -54 22 -67 9z"/>
<path d="M4094 1519 c-4 -7 -10 -48 -13 -93 l-6 -81 -32 -3 c-25 -2 -34 -9
-39 -27 -9 -37 4 -65 30 -65 37 0 44 -19 51 -130 9 -150 9 -152 48 -148 l32 3
5 123 c4 107 8 126 24 138 11 8 26 14 33 14 7 0 17 8 22 18 15 28 -9 66 -42
70 -33 4 -47 33 -47 97 0 59 -15 95 -39 95 -11 0 -23 -5 -27 -11z"/>
<path d="M4671 1516 c-16 -19 -10 -66 10 -79 9 -5 28 -7 42 -3 22 5 27 12 27
39 0 18 -5 38 -12 45 -16 16 -53 15 -67 -2z"/>
<path d="M2536 1434 c-13 -34 -6 -152 10 -168 41 -41 68 3 62 102 -4 64 -15
82 -49 82 -9 0 -20 -7 -23 -16z"/>
<path d="M3107 1333 c-15 -14 -7 -63 12 -73 11 -5 67 -10 125 -10 l106 0 0 45
0 45 -118 0 c-65 0 -122 -3 -125 -7z"/>
<path d="M4591 1326 c-7 -8 -11 -27 -9 -43 2 -22 10 -30 35 -38 41 -12 48 -42
38 -168 -7 -97 -15 -117 -47 -117 -23 0 -32 -21 -24 -54 8 -31 13 -33 144 -41
l112 -8 0 26 c0 47 -17 77 -45 77 -36 0 -45 31 -46 168 0 64 -4 137 -7 162
l-7 45 -66 3 c-49 2 -69 -1 -78 -12z"/>
<path d="M5006 1324 c-3 -9 -6 -117 -6 -240 l0 -224 29 0 c17 0 33 6 38 13 4
6 10 71 13 142 l5 130 30 3 c64 7 67 78 4 98 -23 8 -37 20 -44 40 -5 16 -14
35 -18 42 -12 17 -44 15 -51 -4z"/>
<path d="M5173 1334 c-7 -3 -13 -23 -13 -44 0 -34 3 -38 31 -44 39 -8 87 -8
117 0 23 7 30 45 13 73 -10 15 -123 26 -148 15z"/>
<path d="M5581 1321 c-6 -11 -11 -29 -11 -41 0 -15 -11 -25 -36 -36 -32 -14
-35 -18 -32 -52 3 -33 6 -37 34 -40 29 -3 32 -7 37 -44 3 -22 11 -45 19 -49 7
-5 64 -9 126 -9 l114 0 -5 -35 c-5 -39 11 -55 57 -55 26 0 26 1 26 83 0 46 -3
131 -6 190 l-7 105 -153 1 c-143 2 -154 0 -163 -18z m241 -105 c17 -25 8 -56
-17 -62 -46 -12 -206 1 -216 17 -29 46 30 71 146 63 44 -4 83 -11 87 -18z"/>
<path d="M6086 1325 c-22 -22 -20 -62 3 -75 11 -5 67 -10 126 -10 l106 0 -3
48 -3 47 -106 3 c-87 2 -110 0 -123 -13z"/>
<path d="M2640 1251 c-17 -5 -26 -15 -28 -33 -5 -39 27 -52 129 -52 97 -1 122
11 117 53 -2 21 -10 27 -43 33 -50 9 -142 8 -175 -1z"/>
<path d="M3032 1243 c-4 -10 -7 -68 -6 -130 1 -120 9 -143 49 -143 23 0 35
-22 35 -67 0 -22 3 -23 100 -23 105 0 150 12 150 41 0 40 -26 49 -141 49
l-109 0 0 45 0 45 160 0 160 0 0 64 c0 35 -3 78 -6 95 -6 29 -10 32 -38 29
-27 -3 -31 -7 -34 -36 -4 -44 -32 -53 -145 -50 l-91 3 -9 35 c-5 19 -13 41
-19 48 -15 18 -47 15 -56 -5z"/>
<path d="M6003 1243 c-14 -5 -16 -34 -7 -70 3 -12 19 -26 35 -32 19 -7 30 -19
34 -38 4 -15 8 -34 11 -40 2 -10 36 -13 124 -13 l120 0 0 28 c0 15 3 37 6 50
6 22 6 22 -114 22 l-120 0 -11 44 c-8 32 -17 45 -33 50 -26 6 -28 6 -45 -1z"/>
<path d="M5326 1199 c-4 -23 -6 -107 -5 -186 1 -109 4 -143 14 -143 7 0 27 -3
44 -6 l31 -6 -1 158 c-2 203 -5 218 -45 222 -30 3 -32 1 -38 -39z"/>
<path d="M2868 1068 l-3 -93 -157 -3 c-172 -3 -160 1 -160 -57 0 -8 0 -19 1
-25 1 -6 62 -10 161 -10 l160 0 0 45 c0 38 3 45 19 45 45 0 51 9 51 82 0 81
-11 108 -45 108 -24 0 -24 -2 -27 -92z"/>
<path d="M3862 1061 c-18 -11 -28 -86 -13 -96 7 -4 23 -4 35 -1 28 7 38 45 22
77 -13 26 -26 32 -44 20z"/>
<path d="M4334 1015 c-8 -45 -27 -55 -103 -55 l-61 0 0 -39 c0 -46 9 -51 91
-51 56 0 60 2 70 28 20 51 26 57 55 62 26 5 29 9 29 45 0 39 -1 40 -37 43 -35
3 -37 2 -44 -33z"/>
<path d="M6317 1033 c-2 -10 3 -31 10 -46 12 -23 20 -28 46 -25 27 2 33 8 35
31 5 38 -14 57 -53 57 -24 0 -35 -5 -38 -17z"/>
<path d="M3679 949 c-15 -29 2 -66 34 -74 13 -4 43 -5 68 -3 43 3 44 4 47 42
4 48 -6 56 -80 56 -48 0 -59 -3 -69 -21z"/>
<path d="M5666 944 c-22 -21 -20 -61 3 -74 27 -14 134 -13 149 2 18 18 15 75
-4 82 -33 13 -132 6 -148 -10z"/>
<path d="M5990 910 l0 -50 171 0 170 0 -3 48 -3 47 -167 3 -168 2 0 -50z"/>
<path d="M3373 770 c-25 -10 -29 -30 -13 -61 10 -17 22 -19 125 -19 l115 0 0
45 0 45 -102 -1 c-57 0 -113 -4 -125 -9z"/>
<path d="M3767 458 c3 -178 6 -324 7 -324 0 -1 74 -4 164 -6 l163 -5 -3 46 -3
46 -103 7 c-57 4 -109 12 -116 18 -18 14 -27 78 -18 115 5 16 20 36 37 45 17
9 33 30 40 50 l12 35 69 0 69 0 6 -115 c3 -63 9 -122 13 -132 9 -20 47 -31 61
-17 11 11 20 207 11 245 -4 15 -19 29 -41 38 -26 11 -35 21 -35 38 0 38 -19
48 -91 48 -71 0 -85 -8 -91 -50 -1 -14 -11 -26 -20 -28 -32 -6 -48 40 -56 154
l-7 109 -37 3 -38 3 7 -323z"/>
<path d="M5333 764 c-9 -4 -13 -29 -13 -75 0 -56 -4 -73 -20 -89 -11 -11 -27
-20 -36 -20 -12 0 -14 -10 -12 -47 2 -39 7 -48 23 -51 35 -6 45 -32 45 -118 0
-117 7 -144 41 -156 21 -7 32 -20 41 -49 14 -48 36 -56 117 -43 53 9 56 11 59
40 4 45 -18 59 -97 59 l-66 0 -3 102 c-3 130 5 167 40 171 19 2 27 10 30 30 5
37 -1 62 -16 62 -7 0 -21 6 -32 14 -15 11 -20 30 -24 93 l-5 78 -30 2 c-16 1
-36 0 -42 -3z"/>
<path d="M3283 684 c-10 -26 5 -536 16 -547 6 -6 20 -6 38 0 28 10 28 10 27
96 l-1 87 118 0 117 0 7 -78 c7 -94 13 -106 54 -110 l31 -3 0 103 c0 57 -3
181 -7 276 -6 172 -6 172 -31 179 -14 3 -27 1 -32 -7 -4 -7 -11 -70 -15 -141
l-7 -129 -118 0 -118 0 -4 134 c-2 74 -5 136 -8 139 -3 2 -17 7 -33 11 -20 5
-29 2 -34 -10z"/>
<path d="M4340 554 c0 -47 -14 -64 -52 -64 l-28 0 1 -87 c1 -138 9 -175 41
-191 18 -8 31 -25 36 -45 7 -29 13 -33 58 -40 60 -9 186 1 196 17 4 6 8 21 8
33 0 16 8 25 25 29 37 9 45 32 45 138 0 110 -9 141 -44 150 -19 5 -27 15 -32
40 -3 19 -13 37 -22 41 -8 3 -64 8 -124 12 l-108 6 0 -39z m240 -199 l0 -135
-114 0 c-95 0 -115 3 -120 16 -3 9 -6 69 -6 135 l0 119 120 0 120 0 0 -135z"/>
<path d="M4760 580 c-12 -8 -15 -35 -14 -147 0 -170 7 -206 38 -221 44 -20 48
-8 44 182 -2 144 -6 179 -18 186 -19 12 -31 12 -50 0z"/>
<path d="M5080 481 c0 -141 -6 -171 -34 -171 -32 0 -46 -19 -46 -62 0 -35 2
-38 35 -44 30 -5 36 -11 45 -45 10 -36 14 -39 45 -39 l35 0 0 229 0 229 -22 6
c-58 15 -58 15 -58 -103z"/>
<path d="M5576 284 c-19 -48 8 -87 51 -75 21 5 29 15 31 35 2 15 -2 34 -9 42
-16 19 -65 18 -73 -2z"/>
<path d="M4853 210 c-23 -9 -40 -51 -29 -68 3 -6 36 -15 73 -22 65 -11 68 -10
85 10 27 33 23 69 -8 80 -31 12 -91 12 -121 0z"/>
</g>
</svg>
